<svg xmlns="http://www.w3.org/2000/svg" data-name="Layer 1" viewBox="0 0 64 64"><circle cx="12" cy="12" r="10" fill="#d98285"/><circle cx="52" cy="12" r="10" fill="#ffcb52"/><circle cx="52" cy="52" r="10" fill="#d98285"/><circle cx="12" cy="52" r="10" fill="#ffcb52"/><path fill="#4f5d75" d="M13 11V8c1.08 0 2 .69 2 1.5h2A3.78 3.78 0 0 0 13 6V5H11V6A3.78 3.78 0 0 0 7 9.5 3.78 3.78 0 0 0 11 13v3c-1.08 0-2-.69-2-1.5H7A3.78 3.78 0 0 0 11 18v1h2V18a3.78 3.78 0 0 0 4-3.5A3.78 3.78 0 0 0 13 11zM9 9.5C9 8.69 9.92 8 11 8v3C9.92 11 9 10.31 9 9.5zM13 16V13c1.08 0 2 .69 2 1.5S14.08 16 13 16zM53 16H52a2 2 0 0 1-1.72-1H52V13H50V11h2V9H50.28A2 2 0 0 1 52 8h1a2 2 0 0 1 2 2h2a4 4 0 0 0-4-4H52a4 4 0 0 0-3.86 3H46v2h2v2H46v2h2.14A4 4 0 0 0 52 18h1a4 4 0 0 0 4-4H55A2 2 0 0 1 53 16z"/><polygon fill="#4f5d75" points="56.78 47.63 55.22 46.38 52 50.4 48.78 46.38 47.22 47.63 50.72 52 48 52 48 54 51 54 51 55 48 55 48 57 51 57 51 59 53 59 53 57 56 57 56 55 53 55 53 54 56 54 56 52 53.28 52 56.78 47.63"/><path fill="#4f5d75" d="M15.3,55l-.62.6a1.3,1.3,0,0,1-1.65.12,3.25,3.25,0,0,0-2.23-.62A7.2,7.2,0,0,0,11.15,52H14V50H10.73l-.27-1a1.49,1.49,0,0,1,.28-1.32A1.69,1.69,0,0,1,12.08,47h.59a1.62,1.62,0,0,1,1.66,1.59h2A3.63,3.63,0,0,0,12.67,45h-.59a3.67,3.67,0,0,0-2.92,1.42,3.48,3.48,0,0,0-.63,3l.13.53H7v2H9.12a5.33,5.33,0,0,1-.72,3.54l-.58.93A1,1,0,0,0,8.67,58a.94.94,0,0,0,.43-.1l1.43-.69a1.3,1.3,0,0,1,1.32.11A3.31,3.31,0,0,0,16.07,57l.63-.61Z"/><path fill="#3d5a80" d="M3.47 41.31a30.22 30.22 0 0 1 0-18.62l1.91.62a28.05 28.05 0 0 0 0 17.38zM32 62a30.21 30.21 0 0 1-9.31-1.47l.62-1.9a28.34 28.34 0 0 0 17.38 0l.62 1.9A30.21 30.21 0 0 1 32 62zM60.53 41.31l-1.91-.62a28.05 28.05 0 0 0 0-17.38l1.91-.62a30.22 30.22 0 0 1 0 18.62zM40.69 5.37a28.34 28.34 0 0 0-17.38 0l-.62-1.9a30.36 30.36 0 0 1 18.62 0z"/><circle cx="32" cy="32" r="13" fill="#97d2fb"/><path fill="#2a9d8f" d="M32.3 39.48a1.87 1.87 0 0 1-2.37-2.36l.53-1.6a1.87 1.87 0 0 0-.73-2.15L29 32.88a1.88 1.88 0 0 1-.67-2.32L31.21 24a1.88 1.88 0 0 0-1-2.5l-3.49-1.4a13 13 0 0 0-7.52 9.74l3 .6a2.17 2.17 0 0 1 1.68 2.65l-.3 1.2a2.16 2.16 0 0 0 .3 1.73L25 37.7a2.16 2.16 0 0 1 .3 1.73l-.79 3.16A12.91 12.91 0 0 0 32 45a13.33 13.33 0 0 0 2.2-.2l.54-3.23A1.88 1.88 0 0 0 32.3 39.48zM44.22 27.61a13 13 0 0 0-6.83-7.43L35.13 27A1 1 0 0 0 36.6 28a1 1 0 0 1 1.51.91l-.27 1.64a.94.94 0 0 0 1.54.88l4.54-3.77z"/></svg>