<svg xmlns="http://www.w3.org/2000/svg" enable-background="new 0 0 30 20" viewBox="0 0 30 20"><rect width="28" height="18" x="1" y="1" fill="#00247d"/><polygon fill="none" points="2.704 20 27.296 20 15 11.803"/><polygon fill="none" points="0 1.803 0 18.197 12.296 10"/><polygon fill="none" points="27.296 0 2.704 0 15 8.197"/><polygon fill="none" points="30 18.197 30 1.803 17.704 10"/><polygon fill="#fff" points="15 8.197 2.704 0 0 0 0 1.803 12.296 10 0 18.197 0 20 2.704 20 15 11.803 27.296 20 30 20 30 18.197 17.704 10 30 1.803 30 0 27.296 0"/><rect width="6" height="18" x="12" y="1" fill="#fff"/><rect width="28" height="6" x="1.001" y="7.001" fill="#fff"/><rect width="28" height="4" x="1.001" y="8.001" fill="#cf142b"/><rect width="4" height="18" x="13" y="1" fill="#cf142b"/><path d="M0,0v20h30V0H0z M29,19H1V1h28V19z"/></svg>