<svg xmlns="http://www.w3.org/2000/svg" enable-background="new 0 0 512 512" viewBox="0 0 512 512"><path fill="#474a55" d="M501.8 116.4L310.8 6.2c-13.6-7.9-30.7 2-30.7 17.7V97H50.5c-20.5 0-37.1 16.6-37.1 37.1s16.6 37.1 37.1 37.1h229.6v73.1c0 15.8 17.1 25.6 30.7 17.7l191-110.3C515.4 144 515.4 124.3 501.8 116.4zM10.2 396l191 110.3c13.6 7.9 30.7-2 30.7-17.7v-73.1h229.6c20.5 0 37.1-16.6 37.1-37.1s-16.6-37.1-37.1-37.1H231.9V268c0-15.8-17.1-25.6-30.7-17.7l-191 110.3C-3.4 368.4-3.4 388.1 10.2 396z"/></svg>