<svg xmlns="http://www.w3.org/2000/svg" enable-background="new 0 0 30 20" viewBox="0 0 30 20"><rect width="30" height="20"/><rect width="28" height="1.385" x="1" y="1" fill="#b22234"/><rect width="28" height="1.385" x="1" y="2.385" fill="#fff"/><rect width="28" height="1.385" x="1" y="3.77" fill="#b22234"/><rect width="28" height="1.385" x="1" y="5.155" fill="#fff"/><rect width="28" height="1.385" x="1" y="6.54" fill="#b22234"/><rect width="28" height="1.385" x="1" y="7.925" fill="#fff"/><rect width="28" height="1.385" x="1" y="9.31" fill="#b22234"/><rect width="28" height="1.385" x="1" y="10.695" fill="#fff"/><rect width="28" height="1.385" x="1" y="12.08" fill="#b22234"/><rect width="28" height="1.385" x="1" y="13.465" fill="#fff"/><rect width="28" height="1.385" x="1" y="14.85" fill="#b22234"/><rect width="28" height="1.385" x="1" y="16.235" fill="#fff"/><rect width="14" height="9.695" x="1" y="1" fill="#3c3b6e"/><polygon fill="#fff" points="2.5 2.488 2.175 2.723 2.298 2.341 1.974 2.099 2.375 2.099 2.5 1.723 2.625 2.099 3.026 2.099 2.702 2.341 2.825 2.723"/><polygon fill="#fff" points="4.7 2.488 4.375 2.723 4.498 2.341 4.174 2.099 4.575 2.099 4.7 1.723 4.825 2.099 5.226 2.099 4.902 2.341 5.025 2.723"/><polygon fill="#fff" points="6.9 2.488 6.575 2.723 6.698 2.341 6.374 2.099 6.775 2.099 6.9 1.723 7.025 2.099 7.426 2.099 7.102 2.341 7.225 2.723"/><polygon fill="#fff" points="9.1 2.488 8.775 2.723 8.898 2.341 8.574 2.099 8.975 2.099 9.1 1.723 9.225 2.099 9.626 2.099 9.302 2.341 9.425 2.723"/><polygon fill="#fff" points="11.3 2.488 10.975 2.723 11.098 2.341 10.774 2.099 11.175 2.099 11.3 1.723 11.425 2.099 11.826 2.099 11.502 2.341 11.625 2.723"/><polygon fill="#fff" points="13.5 2.488 13.175 2.723 13.298 2.341 12.974 2.099 13.375 2.099 13.5 1.723 13.625 2.099 14.026 2.099 13.702 2.341 13.825 2.723"/><polygon fill="#fff" points="3.6 3.697 3.275 3.931 3.398 3.55 3.074 3.307 3.475 3.307 3.6 2.931 3.725 3.307 4.126 3.307 3.802 3.55 3.925 3.931"/><polygon fill="#fff" points="5.8 3.697 5.475 3.931 5.598 3.55 5.274 3.307 5.675 3.307 5.8 2.931 5.925 3.307 6.326 3.307 6.002 3.55 6.125 3.931"/><polygon fill="#fff" points="8 3.697 7.675 3.931 7.798 3.55 7.474 3.307 7.875 3.307 8 2.931 8.125 3.307 8.526 3.307 8.202 3.55 8.325 3.931"/><polygon fill="#fff" points="10.2 3.697 9.875 3.931 9.998 3.55 9.674 3.307 10.075 3.307 10.2 2.931 10.325 3.307 10.726 3.307 10.402 3.55 10.525 3.931"/><polygon fill="#fff" points="12.4 3.697 12.075 3.931 12.198 3.55 11.874 3.307 12.275 3.307 12.4 2.931 12.525 3.307 12.926 3.307 12.602 3.55 12.725 3.931"/><polygon fill="#fff" points="2.5 4.905 2.175 5.14 2.298 4.758 1.974 4.515 2.375 4.515 2.5 4.14 2.625 4.515 3.026 4.515 2.702 4.758 2.825 5.14"/><polygon fill="#fff" points="4.7 4.905 4.375 5.14 4.498 4.758 4.174 4.515 4.575 4.515 4.7 4.14 4.825 4.515 5.226 4.515 4.902 4.758 5.025 5.14"/><polygon fill="#fff" points="6.9 4.905 6.575 5.14 6.698 4.758 6.374 4.515 6.775 4.515 6.9 4.14 7.025 4.515 7.426 4.515 7.102 4.758 7.225 5.14"/><polygon fill="#fff" points="9.1 4.905 8.775 5.14 8.898 4.758 8.574 4.515 8.975 4.515 9.1 4.14 9.225 4.515 9.626 4.515 9.302 4.758 9.425 5.14"/><polygon fill="#fff" points="11.3 4.905 10.975 5.14 11.098 4.758 10.774 4.515 11.175 4.515 11.3 4.14 11.425 4.515 11.826 4.515 11.502 4.758 11.625 5.14"/><polygon fill="#fff" points="13.5 4.905 13.175 5.14 13.298 4.758 12.974 4.515 13.375 4.515 13.5 4.14 13.625 4.515 14.026 4.515 13.702 4.758 13.825 5.14"/><g><polygon fill="#fff" points="3.6 6.113 3.275 6.348 3.398 5.966 3.074 5.724 3.475 5.724 3.6 5.348 3.725 5.724 4.126 5.724 3.802 5.966 3.925 6.348"/><polygon fill="#fff" points="5.8 6.113 5.475 6.348 5.598 5.966 5.274 5.724 5.675 5.724 5.8 5.348 5.925 5.724 6.326 5.724 6.002 5.966 6.125 6.348"/><polygon fill="#fff" points="8 6.113 7.675 6.348 7.798 5.966 7.474 5.724 7.875 5.724 8 5.348 8.125 5.724 8.526 5.724 8.202 5.966 8.325 6.348"/><polygon fill="#fff" points="10.2 6.113 9.875 6.348 9.998 5.966 9.674 5.724 10.075 5.724 10.2 5.348 10.325 5.724 10.726 5.724 10.402 5.966 10.525 6.348"/><polygon fill="#fff" points="12.4 6.113 12.075 6.348 12.198 5.966 11.874 5.724 12.275 5.724 12.4 5.348 12.525 5.724 12.926 5.724 12.602 5.966 12.725 6.348"/></g><g><polygon fill="#fff" points="2.5 7.322 2.175 7.556 2.298 7.175 1.974 6.932 2.375 6.932 2.5 6.556 2.625 6.932 3.026 6.932 2.702 7.175 2.825 7.556"/><polygon fill="#fff" points="4.7 7.322 4.375 7.556 4.498 7.175 4.174 6.932 4.575 6.932 4.7 6.556 4.825 6.932 5.226 6.932 4.902 7.175 5.025 7.556"/><polygon fill="#fff" points="6.9 7.322 6.575 7.556 6.698 7.175 6.374 6.932 6.775 6.932 6.9 6.556 7.025 6.932 7.426 6.932 7.102 7.175 7.225 7.556"/><polygon fill="#fff" points="9.1 7.322 8.775 7.556 8.898 7.175 8.574 6.932 8.975 6.932 9.1 6.556 9.225 6.932 9.626 6.932 9.302 7.175 9.425 7.556"/><polygon fill="#fff" points="11.3 7.322 10.975 7.556 11.098 7.175 10.774 6.932 11.175 6.932 11.3 6.556 11.425 6.932 11.826 6.932 11.502 7.175 11.625 7.556"/><polygon fill="#fff" points="13.5 7.322 13.175 7.556 13.298 7.175 12.974 6.932 13.375 6.932 13.5 6.556 13.625 6.932 14.026 6.932 13.702 7.175 13.825 7.556"/></g><g><polygon fill="#fff" points="2.5 9.738 2.175 9.973 2.298 9.591 1.974 9.349 2.375 9.349 2.5 8.973 2.625 9.349 3.026 9.349 2.702 9.591 2.825 9.973"/><polygon fill="#fff" points="4.7 9.738 4.375 9.973 4.498 9.591 4.174 9.349 4.575 9.349 4.7 8.973 4.825 9.349 5.226 9.349 4.902 9.591 5.025 9.973"/><polygon fill="#fff" points="6.9 9.738 6.575 9.973 6.698 9.591 6.374 9.349 6.775 9.349 6.9 8.973 7.025 9.349 7.426 9.349 7.102 9.591 7.225 9.973"/><polygon fill="#fff" points="9.1 9.738 8.775 9.973 8.898 9.591 8.574 9.349 8.975 9.349 9.1 8.973 9.225 9.349 9.626 9.349 9.302 9.591 9.425 9.973"/><polygon fill="#fff" points="11.3 9.738 10.975 9.973 11.098 9.591 10.774 9.349 11.175 9.349 11.3 8.973 11.425 9.349 11.826 9.349 11.502 9.591 11.625 9.973"/><polygon fill="#fff" points="13.5 9.738 13.175 9.973 13.298 9.591 12.974 9.349 13.375 9.349 13.5 8.973 13.625 9.349 14.026 9.349 13.702 9.591 13.825 9.973"/></g><g><polygon fill="#fff" points="3.6 8.53 3.275 8.765 3.398 8.383 3.074 8.14 3.475 8.14 3.6 7.765 3.725 8.14 4.126 8.14 3.802 8.383 3.925 8.765"/><polygon fill="#fff" points="5.8 8.53 5.475 8.765 5.598 8.383 5.274 8.14 5.675 8.14 5.8 7.765 5.925 8.14 6.326 8.14 6.002 8.383 6.125 8.765"/><polygon fill="#fff" points="8 8.53 7.675 8.765 7.798 8.383 7.474 8.14 7.875 8.14 8 7.765 8.125 8.14 8.526 8.14 8.202 8.383 8.325 8.765"/><polygon fill="#fff" points="10.2 8.53 9.875 8.765 9.998 8.383 9.674 8.14 10.075 8.14 10.2 7.765 10.325 8.14 10.726 8.14 10.402 8.383 10.525 8.765"/><polygon fill="#fff" points="12.4 8.53 12.075 8.765 12.198 8.383 11.874 8.14 12.275 8.14 12.4 7.765 12.525 8.14 12.926 8.14 12.602 8.383 12.725 8.765"/></g><rect width="28" height="1.38" x="1" y="17.62" fill="#b22234"/></svg>